<svg width="400" height="87" viewBox="20 10 400 87" fill="none" xmlns="http://www.w3.org/2000/svg">
    <g filter="url(#filter0_ddd_7_98)">
        <path
            d="M125.562 77.1249C121 86.2499 114.516 90.8126 106.109 90.8126C97.7656 90.8126 91.7969 85.1876 88.2032 73.9376C85.8282 66.5 84.6406 57.4376 84.6406 46.75C84.6406 42.7813 84.7969 38.5781 85.1094 34.1406C78.9844 46.1094 74.2188 57.9376 70.8125 69.625H52.8594L52.9063 34.0469C46.8438 46.0469 42.1875 57.9062 38.9375 69.625H20C32.5938 50.9062 42.5156 31.0312 49.7656 10H68.5156C66.7032 21.3125 65.75 33.1562 65.6563 45.5312C71.6563 33.1875 77.125 21.3438 82.0625 10H103.391C100.047 18.5625 98.375 27.6876 98.375 37.375C98.375 38.5938 98.4219 40.1093 98.5156 41.9218C98.8282 48.2031 99.2813 52.9219 99.875 56.0782C100.75 60.7657 102.219 65.2343 104.281 69.4843C107.687 76.4843 111.719 79.9844 116.375 79.9844C121.125 79.9844 124.187 79.0312 125.562 77.1249Z"
            fill="url(#paint0_linear_7_98)" />
        <path
            d="M152.046 28.5625C146.765 42.2499 142.593 55.9376 139.531 69.625H123.828L124.531 67.3282C121.5 69.0469 118.391 69.9062 115.203 69.9062C110.984 69.9062 107.687 68.4532 105.312 65.5469C103.094 62.8594 101.984 59.3593 101.984 55.0468C101.984 48.4843 104.141 42.4688 108.453 37C113.078 31.1563 118.562 28.2344 124.906 28.2344C129.562 28.2344 132.953 29.7187 135.078 32.6875L136.343 28.5625H152.046ZM130.531 43.6093C130.531 40.3281 128.922 38.6875 125.703 38.6875C123.422 38.6875 121.406 39.6562 119.656 41.5938C117.906 43.5312 117.031 45.6562 117.031 47.9688C117.031 51.4062 118.734 53.125 122.14 53.125C124.546 53.125 126.578 52.125 128.234 50.125C129.765 48.25 130.531 46.0781 130.531 43.6093Z"
            fill="url(#paint1_linear_7_98)" />
        <path
            d="M187.531 28.2344L183.64 41.1719C180.328 41.0469 177.125 40.9376 174.031 40.8438C171.218 50.125 168.937 59.7188 167.187 69.625H149.984C152.828 62.3438 156 52.7344 159.5 40.7969C156.218 40.8907 153.046 41.0157 149.984 41.1719L153.922 28.2344C156.828 28.3907 159.875 28.4999 163.062 28.5625C164.437 23.5625 165.875 18.2188 167.375 12.5312H184.718C182.312 17.8125 180.125 23.1562 178.156 28.5625C181.156 28.4687 184.281 28.3594 187.531 28.2344Z"
            fill="url(#paint2_linear_7_98)" />
        <path
            d="M226.625 39.0156C224.812 38.1093 221.625 37.6562 217.062 37.6562C213.468 37.6562 210.453 38.6876 208.015 40.75C205.328 43.0313 201.64 52.4062 196.953 68.875H196.906L196.672 69.625H180.968L193.437 28.5625H200.375C202.281 27.7499 204.515 27.3438 207.078 27.3438C212.296 27.3438 218.812 31.2343 226.625 39.0156Z"
            fill="url(#paint3_linear_7_98)" />
        <path
            d="M251.796 19.375C251.796 21.5312 250.515 23.2656 247.953 24.5781C245.89 25.6406 243.656 26.1719 241.25 26.1719C238.812 26.1719 236.531 25.6406 234.406 24.5781C231.843 23.2968 230.562 21.5468 230.562 19.3281C230.562 17.1094 231.937 15.3594 234.687 14.0781C236.875 13.0469 239.218 12.5312 241.718 12.5312C244.187 12.5312 246.375 13.0469 248.281 14.0781C250.625 15.3594 251.796 17.125 251.796 19.375ZM246.359 28.5625L233.89 69.625H218.187L230.656 28.5625H246.359Z"
            fill="url(#paint4_linear_7_98)" />
        <path
            d="M291.172 28.5625L270.125 49.6562L278.656 69.625H264.546L260.187 59.5468L250.109 69.625H234.453L255.546 48.5782L246.968 28.5625H261.125L265.437 38.6875L275.562 28.5625H291.172Z"
            fill="url(#paint5_linear_7_98)" />
        <path
            d="M365.328 77.1249C360.765 86.2499 354.296 90.8126 345.922 90.8126C338.703 90.8126 333.25 86.9688 329.562 79.2812C326.968 73.8749 325.359 66.8907 324.734 58.3282H314.281C312.937 62.1407 311.703 65.9063 310.578 69.625H292.062C303.843 48.4375 313.781 28.5625 321.875 10H343.203C339.828 18.5938 338.14 27.7188 338.14 37.375C338.14 38.5938 338.187 40.1093 338.281 41.9218C338.593 48.2656 339.046 52.9844 339.64 56.0782C340.515 60.7344 341.984 65.2031 344.046 69.4843C347.422 76.4843 351.453 79.9844 356.14 79.9844C360.89 79.9844 363.953 79.0312 365.328 77.1249ZM324.968 33.9531C322.75 38.2343 320.718 42.5156 318.875 46.7968H324.453C324.484 42.7968 324.656 38.5156 324.968 33.9531Z"
            fill="url(#paint6_linear_7_98)" />
        <path
            d="M386.187 39.0156C384.375 38.1093 381.187 37.6562 376.625 37.6562C373.031 37.6562 370.015 38.6876 367.578 40.75C364.89 43.0313 361.203 52.4062 356.515 68.875H356.468L356.234 69.625H340.531L353 28.5625H359.937C361.843 27.7499 364.078 27.3438 366.64 27.3438C371.859 27.3438 378.375 31.2343 386.187 39.0156Z"
            fill="url(#paint7_linear_7_98)" />
        <path
            d="M419.75 28.2344L415.859 41.1719C412.546 41.0469 409.343 40.9376 406.25 40.8438C403.437 50.125 401.156 59.7188 399.406 69.625H382.203C385.046 62.3438 388.218 52.7344 391.718 40.7969C388.437 40.8907 385.265 41.0157 382.203 41.1719L386.14 28.2344C389.046 28.3907 392.093 28.4999 395.281 28.5625C396.656 23.5625 398.093 18.2188 399.593 12.5312H416.937C414.531 17.8125 412.343 23.1562 410.375 28.5625C413.375 28.4687 416.5 28.3594 419.75 28.2344Z"
            fill="url(#paint8_linear_7_98)" />
    </g>
    <defs>
        <filter id="filter0_ddd_7_98" x="0" y="0" width="439.75" height="120.813" filterUnits="userSpaceOnUse"
            color-interpolation-filters="sRGB">
            <feFlood flood-opacity="0" result="BackgroundImageFix" />
            <feColorMatrix in="SourceAlpha" type="matrix" values="0 0 0 0 0 0 0 0 0 0 0 0 0 0 0 0 0 0 127 0"
                result="hardAlpha" />
            <feOffset dy="2" />
            <feGaussianBlur stdDeviation="3" />
            <feColorMatrix type="matrix" values="0 0 0 0 0 0 0 0 0 0 0 0 0 0 0 0 0 0 0.04 0" />
            <feBlend mode="normal" in2="BackgroundImageFix" result="effect1_dropShadow_7_98" />
            <feColorMatrix in="SourceAlpha" type="matrix" values="0 0 0 0 0 0 0 0 0 0 0 0 0 0 0 0 0 0 127 0"
                result="hardAlpha" />
            <feOffset dy="10" />
            <feGaussianBlur stdDeviation="10" />
            <feColorMatrix type="matrix" values="0 0 0 0 0 0 0 0 0 0 0 0 0 0 0 0 0 0 0.04 0" />
            <feBlend mode="normal" in2="effect1_dropShadow_7_98" result="effect2_dropShadow_7_98" />
            <feColorMatrix in="SourceAlpha" type="matrix" values="0 0 0 0 0 0 0 0 0 0 0 0 0 0 0 0 0 0 127 0"
                result="hardAlpha" />
            <feOffset dy="4" />
            <feGaussianBlur stdDeviation="2" />
            <feComposite in2="hardAlpha" operator="out" />
            <feColorMatrix type="matrix" values="0 0 0 0 0 0 0 0 0 0 0 0 0 0 0 0 0 0 0.25 0" />
            <feBlend mode="normal" in2="effect2_dropShadow_7_98" result="effect3_dropShadow_7_98" />
            <feBlend mode="normal" in="SourceGraphic" in2="effect3_dropShadow_7_98" result="shape" />
        </filter>
        <linearGradient id="paint0_linear_7_98" x1="-213.5" y1="50" x2="629.5" y2="50" gradientUnits="userSpaceOnUse">
            <stop stop-color="#751796" />
            <stop offset="1" stop-color="#FE7223" />
        </linearGradient>
        <linearGradient id="paint1_linear_7_98" x1="-213.5" y1="50" x2="629.5" y2="50" gradientUnits="userSpaceOnUse">
            <stop stop-color="#751796" />
            <stop offset="1" stop-color="#FE7223" />
        </linearGradient>
        <linearGradient id="paint2_linear_7_98" x1="-213.5" y1="50" x2="629.5" y2="50" gradientUnits="userSpaceOnUse">
            <stop stop-color="#751796" />
            <stop offset="1" stop-color="#FE7223" />
        </linearGradient>
        <linearGradient id="paint3_linear_7_98" x1="-213.5" y1="50" x2="629.5" y2="50" gradientUnits="userSpaceOnUse">
            <stop stop-color="#751796" />
            <stop offset="1" stop-color="#FE7223" />
        </linearGradient>
        <linearGradient id="paint4_linear_7_98" x1="-213.5" y1="50" x2="629.5" y2="50" gradientUnits="userSpaceOnUse">
            <stop stop-color="#751796" />
            <stop offset="1" stop-color="#FE7223" />
        </linearGradient>
        <linearGradient id="paint5_linear_7_98" x1="-213.5" y1="50" x2="629.5" y2="50" gradientUnits="userSpaceOnUse">
            <stop stop-color="#751796" />
            <stop offset="1" stop-color="#FE7223" />
        </linearGradient>
        <linearGradient id="paint6_linear_7_98" x1="-213.5" y1="50" x2="629.5" y2="50" gradientUnits="userSpaceOnUse">
            <stop stop-color="#751796" />
            <stop offset="1" stop-color="#FE7223" />
        </linearGradient>
        <linearGradient id="paint7_linear_7_98" x1="-213.5" y1="50" x2="629.5" y2="50" gradientUnits="userSpaceOnUse">
            <stop stop-color="#751796" />
            <stop offset="1" stop-color="#FE7223" />
        </linearGradient>
        <linearGradient id="paint8_linear_7_98" x1="-213.5" y1="50" x2="629.5" y2="50" gradientUnits="userSpaceOnUse">
            <stop stop-color="#751796" />
            <stop offset="1" stop-color="#FE7223" />
        </linearGradient>
    </defs>
</svg>